<svg width="39" height="34" viewBox="0 0 39 34" fill="none" xmlns="http://www.w3.org/2000/svg">
<path d="M0.22 33V0.799998H9.328V25.778H24.692V33H0.22ZM32.9548 33.414C31.4828 33.414 30.2408 32.9233 29.2288 31.942C28.2168 30.9607 27.7108 29.7187 27.7108 28.216C27.7108 26.652 28.2168 25.41 29.2288 24.49C30.2408 23.5393 31.4828 23.064 32.9548 23.064C34.4268 23.064 35.6688 23.5393 36.6808 24.49C37.6928 25.41 38.1988 26.652 38.1988 28.216C38.1988 29.7187 37.6928 30.9607 36.6808 31.942C35.6688 32.9233 34.4268 33.414 32.9548 33.414Z" fill="#222222"/>
</svg>
