<svg width="126" height="27" viewBox="0 0 126 27" fill="none" xmlns="http://www.w3.org/2000/svg">
<path d="M0.52 26V0.799998H7.648V20.348H19.672V26H0.52ZM30.3063 26.324C28.7223 26.324 27.2943 26.012 26.0223 25.388C24.7743 24.764 23.7903 23.792 23.0703 22.472C22.3743 21.128 22.0263 19.436 22.0263 17.396V6.488H28.8663V16.28C28.8663 17.792 29.1423 18.872 29.6943 19.52C30.2703 20.168 31.0743 20.492 32.1063 20.492C32.7783 20.492 33.3903 20.336 33.9423 20.024C34.4943 19.712 34.9383 19.22 35.2743 18.548C35.6103 17.852 35.7783 16.964 35.7783 15.884V6.488H42.6183V26H36.1023V20.492L37.3623 22.04C36.6903 23.48 35.7183 24.56 34.4463 25.28C33.1743 25.976 31.7943 26.324 30.3063 26.324ZM72.4401 6.164C73.9521 6.164 75.2961 6.476 76.4721 7.1C77.6721 7.7 78.6081 8.636 79.2801 9.908C79.9761 11.18 80.3241 12.824 80.3241 14.84V26H73.4841V15.956C73.4841 14.564 73.2201 13.556 72.6921 12.932C72.1641 12.284 71.4441 11.96 70.5321 11.96C69.8841 11.96 69.2961 12.116 68.7681 12.428C68.2401 12.74 67.8321 13.22 67.5441 13.868C67.2561 14.492 67.1121 15.308 67.1121 16.316V26H60.2721V15.956C60.2721 14.564 60.0081 13.556 59.4801 12.932C58.9761 12.284 58.2561 11.96 57.3201 11.96C56.6481 11.96 56.0481 12.116 55.5201 12.428C55.0161 12.74 54.6081 13.22 54.2961 13.868C54.0081 14.492 53.8641 15.308 53.8641 16.316V26H47.0241V6.488H53.5401V11.924L52.2441 10.376C52.9641 8.984 53.9481 7.94 55.1961 7.244C56.4441 6.524 57.8361 6.164 59.3721 6.164C61.1241 6.164 62.6601 6.62 63.9801 7.532C65.3241 8.42 66.2241 9.812 66.6801 11.708L64.4481 11.24C65.1441 9.656 66.1881 8.42 67.5801 7.532C68.9961 6.62 70.6161 6.164 72.4401 6.164ZM94.6794 26.324C92.5434 26.324 90.6474 25.892 88.9914 25.028C87.3354 24.164 86.0274 22.976 85.0674 21.464C84.1314 19.928 83.6634 18.176 83.6634 16.208C83.6634 14.24 84.1314 12.5 85.0674 10.988C86.0274 9.476 87.3354 8.3 88.9914 7.46C90.6474 6.596 92.5434 6.164 94.6794 6.164C96.8154 6.164 98.7114 6.596 100.367 7.46C102.047 8.3 103.355 9.476 104.291 10.988C105.227 12.5 105.695 14.24 105.695 16.208C105.695 18.176 105.227 19.928 104.291 21.464C103.355 22.976 102.047 24.164 100.367 25.028C98.7114 25.892 96.8154 26.324 94.6794 26.324ZM94.6794 20.888C95.4714 20.888 96.1674 20.708 96.7674 20.348C97.3914 19.988 97.8834 19.46 98.2434 18.764C98.6034 18.044 98.7834 17.192 98.7834 16.208C98.7834 15.224 98.6034 14.396 98.2434 13.724C97.8834 13.028 97.3914 12.5 96.7674 12.14C96.1674 11.78 95.4714 11.6 94.6794 11.6C93.9114 11.6 93.2154 11.78 92.5914 12.14C91.9914 12.5 91.4994 13.028 91.1154 13.724C90.7554 14.396 90.5754 15.224 90.5754 16.208C90.5754 17.192 90.7554 18.044 91.1154 18.764C91.4994 19.46 91.9914 19.988 92.5914 20.348C93.2154 20.708 93.9114 20.888 94.6794 20.888Z" fill="#222222"/>
<path d="M115.956 26.324C114.3 26.324 112.68 26.132 111.096 25.748C109.536 25.364 108.276 24.884 107.316 24.308L109.368 19.628C110.28 20.18 111.348 20.624 112.572 20.96C113.796 21.272 114.996 21.428 116.172 21.428C117.324 21.428 118.116 21.308 118.548 21.068C119.004 20.828 119.232 20.504 119.232 20.096C119.232 19.712 119.016 19.436 118.584 19.268C118.176 19.076 117.624 18.932 116.928 18.836C116.256 18.74 115.512 18.632 114.696 18.512C113.88 18.392 113.052 18.236 112.212 18.044C111.396 17.828 110.64 17.516 109.944 17.108C109.272 16.676 108.732 16.1 108.324 15.38C107.916 14.66 107.712 13.748 107.712 12.644C107.712 11.396 108.072 10.292 108.792 9.332C109.536 8.348 110.616 7.58 112.032 7.028C113.448 6.452 115.176 6.164 117.216 6.164C118.584 6.164 119.964 6.308 121.356 6.596C122.772 6.86 123.96 7.268 124.92 7.82L122.868 12.464C121.908 11.912 120.948 11.54 119.988 11.348C119.028 11.132 118.116 11.024 117.252 11.024C116.1 11.024 115.284 11.156 114.804 11.42C114.348 11.684 114.12 12.008 114.12 12.392C114.12 12.776 114.324 13.076 114.732 13.292C115.14 13.484 115.68 13.64 116.352 13.76C117.048 13.856 117.804 13.964 118.62 14.084C119.436 14.18 120.252 14.336 121.068 14.552C121.908 14.768 122.664 15.092 123.336 15.524C124.032 15.932 124.584 16.496 124.992 17.216C125.4 17.912 125.604 18.812 125.604 19.916C125.604 21.116 125.232 22.196 124.488 23.156C123.768 24.116 122.688 24.884 121.248 25.46C119.832 26.036 118.068 26.324 115.956 26.324Z" fill="#B3916F"/>
</svg>
