<svg width="174" height="34" viewBox="0 0 174 34" fill="none" xmlns="http://www.w3.org/2000/svg">
<path d="M0.72 33V0.799998H9.828V25.778H25.192V33H0.72ZM38.7803 33.414C36.7563 33.414 34.9317 33.0153 33.3063 32.218C31.7117 31.4207 30.4543 30.1787 29.5343 28.492C28.645 26.7747 28.2003 24.6127 28.2003 22.006V8.068H36.9403V20.58C36.9403 22.512 37.293 23.892 37.9983 24.72C38.7343 25.548 39.7617 25.962 41.0803 25.962C41.939 25.962 42.721 25.7627 43.4263 25.364C44.1317 24.9653 44.699 24.3367 45.1283 23.478C45.5577 22.5887 45.7723 21.454 45.7723 20.074V8.068H54.5123V33H46.1863V25.962L47.7963 27.94C46.9377 29.78 45.6957 31.16 44.0703 32.08C42.445 32.9693 40.6817 33.414 38.7803 33.414ZM92.6179 7.654C94.5499 7.654 96.2673 8.05267 97.7699 8.85C99.3033 9.61667 100.499 10.8127 101.358 12.438C102.247 14.0633 102.692 16.164 102.692 18.74V33H93.9519V20.166C93.9519 18.3873 93.6146 17.0993 92.9399 16.302C92.2653 15.474 91.3453 15.06 90.1799 15.06C89.3519 15.06 88.6006 15.2593 87.9259 15.658C87.2513 16.0567 86.7299 16.67 86.3619 17.498C85.9939 18.2953 85.8099 19.338 85.8099 20.626V33H77.0699V20.166C77.0699 18.3873 76.7326 17.0993 76.0579 16.302C75.4139 15.474 74.4939 15.06 73.2979 15.06C72.4393 15.06 71.6726 15.2593 70.9979 15.658C70.3539 16.0567 69.8326 16.67 69.4339 17.498C69.0659 18.2953 68.8819 19.338 68.8819 20.626V33H60.1419V8.068H68.4679V15.014L66.8119 13.036C67.7319 11.2573 68.9893 9.92333 70.5839 9.034C72.1786 8.114 73.9573 7.654 75.9199 7.654C78.1586 7.654 80.1213 8.23667 81.8079 9.402C83.5253 10.5367 84.6753 12.3153 85.2579 14.738L82.4059 14.14C83.2953 12.116 84.6293 10.5367 86.4079 9.402C88.2173 8.23667 90.2873 7.654 92.6179 7.654ZM121.035 33.414C118.305 33.414 115.883 32.862 113.767 31.758C111.651 30.654 109.979 29.136 108.753 27.204C107.557 25.2413 106.959 23.0027 106.959 20.488C106.959 17.9733 107.557 15.75 108.753 13.818C109.979 11.886 111.651 10.3833 113.767 9.31C115.883 8.206 118.305 7.654 121.035 7.654C123.764 7.654 126.187 8.206 128.303 9.31C130.449 10.3833 132.121 11.886 133.317 13.818C134.513 15.75 135.111 17.9733 135.111 20.488C135.111 23.0027 134.513 25.2413 133.317 27.204C132.121 29.136 130.449 30.654 128.303 31.758C126.187 32.862 123.764 33.414 121.035 33.414ZM121.035 26.468C122.047 26.468 122.936 26.238 123.703 25.778C124.5 25.318 125.129 24.6433 125.589 23.754C126.049 22.834 126.279 21.7453 126.279 20.488C126.279 19.2307 126.049 18.1727 125.589 17.314C125.129 16.4247 124.5 15.75 123.703 15.29C122.936 14.83 122.047 14.6 121.035 14.6C120.053 14.6 119.164 14.83 118.367 15.29C117.6 15.75 116.971 16.4247 116.481 17.314C116.021 18.1727 115.791 19.2307 115.791 20.488C115.791 21.7453 116.021 22.834 116.481 23.754C116.971 24.6433 117.6 25.318 118.367 25.778C119.164 26.238 120.053 26.468 121.035 26.468ZM148.222 33.414C146.106 33.414 144.036 33.1687 142.012 32.678C140.018 32.1873 138.408 31.574 137.182 30.838L139.804 24.858C140.969 25.5633 142.334 26.1307 143.898 26.56C145.462 26.9587 146.995 27.158 148.498 27.158C149.97 27.158 150.982 27.0047 151.534 26.698C152.116 26.3913 152.408 25.9773 152.408 25.456C152.408 24.9653 152.132 24.6127 151.58 24.398C151.058 24.1527 150.353 23.9687 149.464 23.846C148.605 23.7233 147.654 23.5853 146.612 23.432C145.569 23.2787 144.511 23.0793 143.438 22.834C142.395 22.558 141.429 22.1593 140.54 21.638C139.681 21.086 138.991 20.35 138.47 19.43C137.948 18.51 137.688 17.3447 137.688 15.934C137.688 14.3393 138.148 12.9287 139.068 11.702C140.018 10.4447 141.398 9.46333 143.208 8.758C145.017 8.022 147.225 7.654 149.832 7.654C151.58 7.654 153.343 7.838 155.122 8.206C156.931 8.54333 158.449 9.06467 159.676 9.77L157.054 15.704C155.827 14.9987 154.6 14.5233 153.374 14.278C152.147 14.002 150.982 13.864 149.878 13.864C148.406 13.864 147.363 14.0327 146.75 14.37C146.167 14.7073 145.876 15.1213 145.876 15.612C145.876 16.1027 146.136 16.486 146.658 16.762C147.179 17.0073 147.869 17.2067 148.728 17.36C149.617 17.4827 150.583 17.6207 151.626 17.774C152.668 17.8967 153.711 18.096 154.754 18.372C155.827 18.648 156.793 19.062 157.652 19.614C158.541 20.1353 159.246 20.856 159.768 21.776C160.289 22.6653 160.55 23.8153 160.55 25.226C160.55 26.7593 160.074 28.1393 159.124 29.366C158.204 30.5927 156.824 31.574 154.984 32.31C153.174 33.046 150.92 33.414 148.222 33.414ZM167.996 33.414C166.524 33.414 165.282 32.9233 164.27 31.942C163.258 30.9607 162.752 29.7187 162.752 28.216C162.752 26.652 163.258 25.41 164.27 24.49C165.282 23.5393 166.524 23.064 167.996 23.064C169.468 23.064 170.71 23.5393 171.722 24.49C172.734 25.41 173.24 26.652 173.24 28.216C173.24 29.7187 172.734 30.9607 171.722 31.942C170.71 32.9233 169.468 33.414 167.996 33.414Z" fill="white"/>
</svg>
