<svg width="173" height="34" viewBox="0 0 173 34" fill="none" xmlns="http://www.w3.org/2000/svg">
<path d="M0.22 33V0.799998H9.328V25.778H24.692V33H0.22ZM38.2803 33.414C36.2563 33.414 34.4317 33.0153 32.8063 32.218C31.2117 31.4207 29.9543 30.1787 29.0343 28.492C28.145 26.7747 27.7003 24.6127 27.7003 22.006V8.068H36.4403V20.58C36.4403 22.512 36.793 23.892 37.4983 24.72C38.2343 25.548 39.2617 25.962 40.5803 25.962C41.439 25.962 42.221 25.7627 42.9263 25.364C43.6317 24.9653 44.199 24.3367 44.6283 23.478C45.0577 22.5887 45.2723 21.454 45.2723 20.074V8.068H54.0123V33H45.6863V25.962L47.2963 27.94C46.4377 29.78 45.1957 31.16 43.5703 32.08C41.945 32.9693 40.1817 33.414 38.2803 33.414ZM92.1179 7.654C94.0499 7.654 95.7673 8.05267 97.2699 8.85C98.8033 9.61667 99.9993 10.8127 100.858 12.438C101.747 14.0633 102.192 16.164 102.192 18.74V33H93.4519V20.166C93.4519 18.3873 93.1146 17.0993 92.4399 16.302C91.7653 15.474 90.8453 15.06 89.6799 15.06C88.8519 15.06 88.1006 15.2593 87.4259 15.658C86.7513 16.0567 86.2299 16.67 85.8619 17.498C85.4939 18.2953 85.3099 19.338 85.3099 20.626V33H76.5699V20.166C76.5699 18.3873 76.2326 17.0993 75.5579 16.302C74.9139 15.474 73.9939 15.06 72.7979 15.06C71.9393 15.06 71.1726 15.2593 70.4979 15.658C69.8539 16.0567 69.3326 16.67 68.9339 17.498C68.5659 18.2953 68.3819 19.338 68.3819 20.626V33H59.6419V8.068H67.9679V15.014L66.3119 13.036C67.2319 11.2573 68.4893 9.92333 70.0839 9.034C71.6786 8.114 73.4573 7.654 75.4199 7.654C77.6586 7.654 79.6213 8.23667 81.3079 9.402C83.0253 10.5367 84.1753 12.3153 84.7579 14.738L81.9059 14.14C82.7953 12.116 84.1293 10.5367 85.9079 9.402C87.7173 8.23667 89.7873 7.654 92.1179 7.654ZM120.535 33.414C117.805 33.414 115.383 32.862 113.267 31.758C111.151 30.654 109.479 29.136 108.253 27.204C107.057 25.2413 106.459 23.0027 106.459 20.488C106.459 17.9733 107.057 15.75 108.253 13.818C109.479 11.886 111.151 10.3833 113.267 9.31C115.383 8.206 117.805 7.654 120.535 7.654C123.264 7.654 125.687 8.206 127.803 9.31C129.949 10.3833 131.621 11.886 132.817 13.818C134.013 15.75 134.611 17.9733 134.611 20.488C134.611 23.0027 134.013 25.2413 132.817 27.204C131.621 29.136 129.949 30.654 127.803 31.758C125.687 32.862 123.264 33.414 120.535 33.414ZM120.535 26.468C121.547 26.468 122.436 26.238 123.203 25.778C124 25.318 124.629 24.6433 125.089 23.754C125.549 22.834 125.779 21.7453 125.779 20.488C125.779 19.2307 125.549 18.1727 125.089 17.314C124.629 16.4247 124 15.75 123.203 15.29C122.436 14.83 121.547 14.6 120.535 14.6C119.553 14.6 118.664 14.83 117.867 15.29C117.1 15.75 116.471 16.4247 115.981 17.314C115.521 18.1727 115.291 19.2307 115.291 20.488C115.291 21.7453 115.521 22.834 115.981 23.754C116.471 24.6433 117.1 25.318 117.867 25.778C118.664 26.238 119.553 26.468 120.535 26.468ZM147.722 33.414C145.606 33.414 143.536 33.1687 141.512 32.678C139.518 32.1873 137.908 31.574 136.682 30.838L139.304 24.858C140.469 25.5633 141.834 26.1307 143.398 26.56C144.962 26.9587 146.495 27.158 147.998 27.158C149.47 27.158 150.482 27.0047 151.034 26.698C151.616 26.3913 151.908 25.9773 151.908 25.456C151.908 24.9653 151.632 24.6127 151.08 24.398C150.558 24.1527 149.853 23.9687 148.964 23.846C148.105 23.7233 147.154 23.5853 146.112 23.432C145.069 23.2787 144.011 23.0793 142.938 22.834C141.895 22.558 140.929 22.1593 140.04 21.638C139.181 21.086 138.491 20.35 137.97 19.43C137.448 18.51 137.188 17.3447 137.188 15.934C137.188 14.3393 137.648 12.9287 138.568 11.702C139.518 10.4447 140.898 9.46333 142.708 8.758C144.517 8.022 146.725 7.654 149.332 7.654C151.08 7.654 152.843 7.838 154.622 8.206C156.431 8.54333 157.949 9.06467 159.176 9.77L156.554 15.704C155.327 14.9987 154.1 14.5233 152.874 14.278C151.647 14.002 150.482 13.864 149.378 13.864C147.906 13.864 146.863 14.0327 146.25 14.37C145.667 14.7073 145.376 15.1213 145.376 15.612C145.376 16.1027 145.636 16.486 146.158 16.762C146.679 17.0073 147.369 17.2067 148.228 17.36C149.117 17.4827 150.083 17.6207 151.126 17.774C152.168 17.8967 153.211 18.096 154.254 18.372C155.327 18.648 156.293 19.062 157.152 19.614C158.041 20.1353 158.746 20.856 159.268 21.776C159.789 22.6653 160.05 23.8153 160.05 25.226C160.05 26.7593 159.574 28.1393 158.624 29.366C157.704 30.5927 156.324 31.574 154.484 32.31C152.674 33.046 150.42 33.414 147.722 33.414ZM167.496 33.414C166.024 33.414 164.782 32.9233 163.77 31.942C162.758 30.9607 162.252 29.7187 162.252 28.216C162.252 26.652 162.758 25.41 163.77 24.49C164.782 23.5393 166.024 23.064 167.496 23.064C168.968 23.064 170.21 23.5393 171.222 24.49C172.234 25.41 172.74 26.652 172.74 28.216C172.74 29.7187 172.234 30.9607 171.222 31.942C170.21 32.9233 168.968 33.414 167.496 33.414Z" fill="#222222"/>
</svg>
